<svg xmlns="http://www.w3.org/2000/svg" viewBox="0 0 86.61 33.75"><defs><style>.cls-1{fill:#231f20;}</style></defs><g id="Layer_2" data-name="Layer 2"><g id="Logo"><path class="cls-1" d="M40.44,8.8V27h-.52V9.92L31.63,24.43h-.32L23,10V27H22.5V8.8h.44l8.53,14.92L40,8.8Z"/><path class="cls-1" d="M60.8,8.8,52.61,27h-.52L43.9,8.8h.6l7.85,17.5L60.2,8.8Z"/><path class="cls-1" d="M77.83,19.13a4.32,4.32,0,0,1,1.09,3.09,4.14,4.14,0,0,1-1.66,3.56,8.41,8.41,0,0,1-5,1.22h-7.9V8.8h7.38A7.51,7.51,0,0,1,76.29,10a4,4,0,0,1,1.64,3.43,4.08,4.08,0,0,1-.88,2.7,4.75,4.75,0,0,1-2.45,1.51A5.49,5.49,0,0,1,77.83,19.13ZM65.27,9.58v7.8H71.8a6.54,6.54,0,0,0,3.9-1,3.38,3.38,0,0,0,1.37-2.9,3.38,3.38,0,0,0-1.37-2.9,6.54,6.54,0,0,0-3.9-1ZM76.61,25.23a3.45,3.45,0,0,0,1.43-3,3.48,3.48,0,0,0-1.43-3.07,7.55,7.55,0,0,0-4.27-1H65.27v8.09h7.07A7.55,7.55,0,0,0,76.61,25.23Z"/><path class="cls-1" d="M86.61,10.3v1.32H81.32v-1L84,8a2.69,2.69,0,0,0,.58-.71,1.25,1.25,0,0,0,.15-.58.79.79,0,0,0-.28-.65,1.4,1.4,0,0,0-.84-.22A1.87,1.87,0,0,0,82.8,6a1.55,1.55,0,0,0-.62.52L81,5.8a2.71,2.71,0,0,1,1.13-1,3.77,3.77,0,0,1,1.65-.35,3.42,3.42,0,0,1,1.37.25,2.22,2.22,0,0,1,.91.73,1.89,1.89,0,0,1,.32,1.09,2.43,2.43,0,0,1-.24,1.07,4.22,4.22,0,0,1-.93,1.14L83.6,10.3Z"/><circle class="cls-1" cx="4.79" cy="28.96" r="4.79"/><path class="cls-1" d="M4.79,3.93A4.77,4.77,0,0,1,9.14,6.75,4.78,4.78,0,1,0,0,4.79a4.76,4.76,0,0,0,.43,2A4.78,4.78,0,0,1,4.79,3.93Z"/><path class="cls-1" d="M4.79,16.32a4.77,4.77,0,0,1,4,2.25,4.79,4.79,0,1,0-8.09,0A4.78,4.78,0,0,1,4.79,16.32Z"/></g></g></svg>